<svg height="40" width="233" xmlns="http://www.w3.org/2000/svg" xmlns:xlink="http://www.w3.org/1999/xlink"><mask id="a" fill="#fff"><path d="m.1.077h19.519v11.439h-19.52z" fill="#fff" fill-rule="evenodd"/></mask><g fill="none" fill-rule="evenodd"><path d="m20 0h213v40h-233v-20c0-11.046 8.954-20 20-20z" fill="#fff"/><path d="m35.965 26c2.093 0 3.245-1.14 3.245-2.902 0-1.21-.573-1.998-1.588-2.378v-.056c.85-.353 1.254-1.042 1.254-1.939 0-1.632-1.1-2.72-3.089-2.72l-4.57-.001v9.996zm-.467-5.802h-2.518v-2.763h2.518c1.05 0 1.595.508 1.595 1.381s-.545 1.382-1.595 1.382zm.17 4.34h-2.688v-3.018h2.688c1.15 0 1.746.56 1.746 1.51s-.595 1.508-1.746 1.508zm8.59 1.632c2.232 0 3.657-1.526 3.657-3.868 0-2.344-1.425-3.871-3.657-3.871-2.245 0-3.668 1.527-3.668 3.871 0 2.342 1.423 3.868 3.668 3.868zm0-1.285c-1.227 0-1.996-.944-1.996-2.583s.769-2.586 1.996-2.586c1.216 0 1.984.947 1.984 2.586s-.768 2.583-1.984 2.583zm8.652 1.285c2.232 0 3.657-1.526 3.657-3.868 0-2.344-1.425-3.871-3.657-3.871-2.245 0-3.668 1.527-3.668 3.871 0 2.342 1.423 3.868 3.668 3.868zm0-1.285c-1.227 0-1.996-.944-1.996-2.583s.769-2.586 1.996-2.586c1.216 0 1.984.947 1.984 2.586s-.768 2.583-1.984 2.583zm7.07 1.115v-2.63l.873-.853 2.364 3.483h1.933l-3.16-4.564 2.842-2.835h-1.982l-2.87 2.933v-5.67h-1.642v10.136h1.641zm11.996.17c.858 0 1.83-.291 2.322-.966h.056c.178.635.668.875 1.413.875.314 0 .666-.034.806-.08v-1.287a1.022 1.022 0 0 1 -.32.054c-.187 0-.342-.07-.342-.434v-3.594c0-1.298-.81-2.307-2.952-2.307-1.612 0-2.828.809-3.137 2.156l1.507.295c.24-.812.889-1.183 1.59-1.183.964 0 1.351.414 1.351 1.025 0 .455-.354.694-1.706.847-1.93.208-3.01.798-3.01 2.392 0 1.374 1.11 2.207 2.422 2.207zm.363-1.223c-.686 0-1.113-.38-1.113-1.018 0-.753.611-1.108 1.33-1.21.742-.097 1.49-.216 1.714-.448v.828c0 1.303-1.072 1.848-1.931 1.848zm12.11 1.223c1.833 0 3.233-.772 3.233-2.332 0-1.61-1.235-2.003-2.529-2.227l-.739-.114c-.775-.136-1.38-.289-1.38-.893 0-.642.546-.995 1.348-.995.758 0 1.435.397 1.626 1.214l1.504-.268c-.209-1.174-1.461-2.124-3.123-2.124-1.728 0-3.017.897-3.017 2.213 0 1.558 1.222 1.961 2.384 2.155l.768.128c.874.149 1.486.359 1.486.968 0 .696-.629 1.107-1.536 1.107-.992 0-1.69-.434-1.907-1.422l-1.513.273c.252 1.38 1.486 2.317 3.394 2.317zm6.652 2.406v-3.425h.056c.415.643 1.187 1.019 2.216 1.019 1.92 0 3.31-1.527 3.31-3.871 0-2.343-1.39-3.868-3.323-3.868-1.02 0-1.854.38-2.278 1.119h-.056v-.95h-1.566v9.976zm1.898-3.7c-1.215 0-2-.948-2-2.576 0-1.626.785-2.573 2-2.573 1.23 0 2.012.947 2.012 2.573 0 1.628-.782 2.576-2.012 2.576zm7.397 1.294c.858 0 1.83-.291 2.322-.966h.056c.178.635.668.875 1.413.875.314 0 .666-.034.806-.08v-1.287a1.022 1.022 0 0 1 -.32.054c-.187 0-.342-.07-.342-.434v-3.594c0-1.298-.81-2.307-2.952-2.307-1.612 0-2.828.809-3.137 2.156l1.507.295c.24-.812.889-1.183 1.59-1.183.964 0 1.351.414 1.351 1.025 0 .455-.354.694-1.706.847-1.93.208-3.01.798-3.01 2.392 0 1.374 1.11 2.207 2.421 2.207zm.363-1.223c-.686 0-1.113-.38-1.113-1.018 0-.753.611-1.108 1.33-1.21.742-.097 1.49-.216 1.714-.448v.828c0 1.303-1.072 1.848-1.931 1.848zm8.787 1.223c2.237 0 3.17-1.478 3.461-2.587l-1.66-.226c-.156.614-.58 1.53-1.801 1.53-1.161 0-1.904-.946-1.904-2.585s.743-2.586 1.904-2.586c1.183 0 1.604.881 1.762 1.351l1.56-.439c-.251-.734-1.106-2.197-3.322-2.197-2.18 0-3.576 1.527-3.576 3.871 0 2.343 1.397 3.868 3.576 3.868zm8.267 0c2.244 0 3.173-1.284 3.492-2.342l-1.664-.175c-.167.505-.628 1.263-1.828 1.263-1.149 0-1.869-.948-1.905-2.24h5.447c.192-2.693-1.336-4.245-3.554-4.245-2.195 0-3.557 1.54-3.557 3.883 0 2.318 1.412 3.856 3.57 3.856zm1.878-4.658h-3.757c.098-.974.706-1.836 1.867-1.836 1.184 0 1.792.862 1.89 1.836z" fill="#000" fill-rule="nonzero"/><path d="m153 0h80v40h-80z" fill="#000"/><g fill="#fff"><path d="m165.493 22.91c.857 0 1.502-.49 1.502-1.29 0-.557-.378-1.314-1.469-1.314h-1.324v2.604h1.29zm-.3-3.706c.812 0 1.313-.39 1.313-1.157 0-.79-.501-1.169-1.38-1.169h-.924v2.326h.99zm-2.193 4.808v-8.235h2.237c1.514 0 2.47.946 2.47 2.236 0 .702-.2 1.147-.734 1.603.79.445 1.224 1.08 1.224 2.003 0 1.47-1.101 2.393-2.604 2.393zm9.526-5.275c-1.157 0-2.159.98-2.159 2.181 0 1.169.969 2.193 2.137 2.193a2.187 2.187 0 0 0 2.203-2.204c0-1.202-.968-2.17-2.18-2.17m-.034 5.431c-1.736 0-3.283-1.48-3.283-3.216 0-1.881 1.48-3.272 3.372-3.272 1.703 0 3.305 1.335 3.283 3.294-.022 1.647-1.402 3.194-3.372 3.194m7.712-5.431c-1.157 0-2.159.98-2.159 2.181 0 1.169.968 2.193 2.137 2.193a2.187 2.187 0 0 0 2.204-2.204c0-1.202-.968-2.17-2.182-2.17m-.033 5.431c-1.736 0-3.283-1.48-3.283-3.216 0-1.881 1.48-3.272 3.372-3.272 1.703 0 3.305 1.335 3.283 3.294-.022 1.647-1.402 3.194-3.372 3.194m15.291-3.628c-.089-1.046-1.013-1.803-2.003-1.803-.946 0-1.892.746-1.981 1.803zm-3.984.89c.267 1.024 1.08 1.68 2.025 1.68.724 0 1.403-.378 1.759-1.034h1.157c-.478 1.268-1.636 2.092-2.96 2.092-1.736 0-3.139-1.536-3.139-3.183 0-1.948 1.47-3.305 3.105-3.305 1.815 0 3.194 1.402 3.194 3.172 0 .189 0 .367-.033.578zm6.466 2.582v-6.165h1.08v.556h.022c.277-.412.756-.679 1.569-.723v1.19c-1.002.034-1.514.646-1.514 1.681v3.461zm-9.307 0-2.85-3.194 2.572-3.095h1.368l-2.615 3.029 2.971 3.26zm-3.65 0h1.157v-8.235h-1.158v8.235z"/><path d="m12.63 9.825c-1.075.003-2.121-.624-2.69-1.706l1.18-.718c.243.482.813 1.01 1.52.986.805-.028 1.397-.66 1.397-1.457 0-.836-.743-1.398-1.392-1.399-.45 0-.738.127-.93.345-.218.248-.291.417-.291.417l-1.282-.299.109-.656.614-3.531h4.005v1.437h-2.732l-.158.923c.208-.07.431-.074.7-.074 1.383.005 2.78 1.23 2.79 2.79.012 1.722-1.337 2.937-2.84 2.942zm-3.174.01h-5.199v-.841c0-.241.096-.473.265-.644l2.927-2.834c.555-.564.593-.938.593-1.139 0-.672-.572-1.156-1.164-1.156-.654 0-1.184.511-1.184 1.337v.383h-1.446v-.373c-.018-1.908 1.324-2.81 2.61-2.81 1.451 0 2.588 1.164 2.588 2.65 0 .844-.281 1.418-1.116 2.273l-1.665 1.713h2.79v1.44zm4.744-9.756-8.68-.002c-2.995 0-5.42 2.56-5.422 5.719 0 3.158 2.426 5.719 5.42 5.719l8.68.001c2.994 0 5.42-2.56 5.42-5.718 0-3.159-2.426-5.72-5.419-5.72z" mask="url(#a)" transform="translate(202.629 14.261)"/></g></g></svg>