<svg height="40" viewBox="0 0 233 40" width="233" xmlns="http://www.w3.org/2000/svg" xmlns:xlink="http://www.w3.org/1999/xlink"><mask id="a" fill="#fff"><path d="m.09924194.0774629h19.51973706v11.4385645h-19.51973706z" fill="#fff" fill-rule="evenodd"/></mask><g fill="none" fill-rule="evenodd"><path d="m20 0h213v40h-233v-20c0-11.045695 8.954305-20 20-20z" fill="#fff"/><path d="m35.9645599 26c2.0932801 0 3.24534-1.1407199 3.24534-2.9020599 0-1.2107199-.5731601-1.9978-1.58746-2.37762v-.056c.8499401-.35364 1.25328-1.04272 1.25328-1.9392799 0-1.63254-1.0997-2.7209001-3.0882599-2.7209001l-4.571-.0001401v9.996zm-.46634-5.8023h-2.5177599v-2.7631799h2.5177599c1.04972 0 1.5946.50834 1.5946 1.3815199s-.54488 1.38166-1.5946 1.38166zm.1698201 4.34042h-2.68758v-3.0177h2.68758c1.1508 0 1.7463599.55888 1.7463599 1.50878 0 .9499001-.5955599 1.50892-1.7463599 1.50892zm8.5904001 1.6317003c2.23174 0 3.65666-1.5254401 3.65666-3.8676402 0-2.3438799-1.42492-3.87128-3.65666-3.87128-2.2455999 0-3.6686998 1.5274001-3.6686998 3.87128 0 2.3422001 1.4230999 3.8676402 3.6686998 3.8676402zm0-1.2849202c-1.2275199 0-1.9959799-.94388-1.9959799-2.58272 0-1.6387.76846-2.58636 1.9959799-2.58636 1.2154801 0 1.9839401.94766 1.9839401 2.58636 0 1.63884-.76846 2.58272-1.9839401 2.58272zm8.652 1.2849202c2.23174 0 3.65666-1.5254401 3.65666-3.8676402 0-2.3438799-1.42492-3.87128-3.65666-3.87128-2.2455999 0-3.6686998 1.5274001-3.6686998 3.87128 0 2.3422001 1.4230999 3.8676402 3.6686998 3.8676402zm0-1.2849202c-1.2275199 0-1.9959799-.94388-1.9959799-2.58272 0-1.6387.76846-2.58636 1.9959799-2.58636 1.2154801 0 1.9839401.94766 1.9839401 2.58636 0 1.63884-.76846 2.58272-1.9839401 2.58272zm7.0687403 1.1150999-.0000005-2.6290599.8741601-.854 2.3632 3.4830599h1.9338201l-3.1606399-4.564 2.84228-2.8352801h-1.9815599l-2.8712599 2.9335599v-5.67028h-1.6410801v10.1360002zm11.9963198.1698199c.8580599 0 1.8298-.29092 2.32288-.9655801h.056c.1775199.6349001.6680798.8747202 1.4121797.8747202.3144401 0 .6662602-.03346.8068201-.0790999v-1.288c-.1029001.0383601-.2374401.0541801-.3196201.0541801-.1873198.0001397-.3427199-.0698603-.3427199-.4338603v-3.5946399c0-1.29724-.81088-2.3066401-2.9521799-2.3066401-1.6120999 0-2.8274399.80892-3.13726 2.15586l1.5078.29526c.2394001-.8122801.88858-1.183 1.58928-1.183.9647401 0 1.3512801.4135599 1.3512801 1.0248 0 .4547199-.3536399.69412-1.7054799.8467199-1.92962.20874-3.0107.7985601-3.0107 2.39274 0 1.3738201 1.1100599 2.2065401 2.4217199 2.2065401zm.3632998-1.2224797c-.6862801 0-1.1124401-.3794001-1.1124401-1.0186402 0-.7526399.61082-1.10754 1.32916-1.2091799.7422801-.098 1.4903-.2167199 1.7143-.44884v.8281002c0 1.30354-1.07226 1.8485599-1.9310199 1.8485599zm12.1092999 1.2224794c1.8342801 0 3.234-.7714 3.234-2.3318401 0-1.6093-1.2347999-2.0031201-2.5288198-2.2271201l-.73892-.11382c-.7749001-.1363601-1.3808201-.28854-1.3808201-.89264 0-.6424599.54684-.9949798 1.3482001-.9949798.7585198 0 1.4356998.3969 1.6258198 1.21408l1.5044401-.2689397c-.2087401-1.1732-1.4611801-2.12366-3.1232602-2.12366-1.72746 0-3.01686.8968399-3.01686 2.21312 0 1.5580599 1.2222 1.9609799 2.38462 2.1551598l.7674801.1278201c.87416.14854 1.48554.35854 1.48554.96754 0 .6966399-.62846 1.10712-1.5350999 1.10712-.99246 0-1.69092-.43358-1.90722-1.4218399l-1.5132599.2727199c.252 1.3802599 1.4860999 2.3172798 3.3941598 2.3172798zm6.65308 2.4061808v-3.4250999h.056c.4150999.6425999 1.1863599 1.0187799 2.21564 1.0187799 1.9201001.0001397 3.3110002-1.5271203 3.3110002-3.8711402 0-2.3420599-1.3909001-3.8676399-3.3237401-3.8676399-1.02088 0-1.85416.38066-2.2783601 1.1187401h-.056v-.94892h-1.56562v9.97528zm1.8981201-3.7002002c-1.2154801 0-1.9997602-.9476601-1.9997602-2.57558 0-1.6261.7842801-2.5736199 1.9997602-2.5736199 1.2293399 0 2.0117999.9475199 2.0117999 2.5736199 0 1.6279199-.78246 2.57558-2.0117999 2.57558zm7.3962 1.2940197c.85806 0 1.8298-.29092 2.32288-.9655801h.056c.17752.6349001.66808.8747202 1.41218.8747202.31444 0 .66626-.03346.80682-.0790999v-1.288c-.1029.0383601-.23744.0541801-.31962.0541801-.18732.0001397-.34272-.0698603-.34272-.4338603v-3.5946399c0-1.29724-.81088-2.3066401-2.95218-2.3066401-1.6120998 0-2.8274398.80892-3.1372599 2.15586l1.5078.29526c.2394001-.8122801.8885799-1.183 1.5892799-1.183.96474 0 1.35128.4135599 1.35128 1.0248 0 .4547199-.35364.69412-1.70548.8467199-1.9296197.20874-3.0106997.7985601-3.0106997 2.39274 0 1.3738201 1.1100599 2.2065401 2.4217197 2.2065401zm.3633-1.2224797c-.68628 0-1.1124401-.3794001-1.1124401-1.0186402 0-.7526399.6108201-1.10754 1.3291601-1.2091799.74228-.098 1.4903-.2167199 1.7143-.44884v.8281002c0 1.30354-1.07226 1.8485599-1.93102 1.8485599zm8.7871 1.2226198c2.23664 0 3.1703-1.4779801 3.46122-2.5866401l-1.66054-.2258201c-.15582.6134801-.5789 1.5293601-1.80054 1.5293601l-.00014-.00014c-1.1613 0-1.90358-.9457-1.90358-2.58454 0-1.6387.74228-2.58636 1.90358-2.58636 1.18328 0 1.60454.8812999 1.76218 1.3515599l1.55946-.4389001c-.2506-.73472-1.10572-2.1974399-3.32164-2.1974399-2.17924 0-3.57616 1.5274001-3.57616 3.8712801 0 2.3422 1.39692 3.8676401 3.57616 3.8676401zm8.26728-.0001397c2.24392 0 3.17268-1.2835199 3.4923-2.3421998l-1.66432-.1747204c-.16744.5054001-.62846 1.2629401-1.82798 1.2629401-1.14912 0-1.86872-.94808-1.90526-2.24h5.4467c.19236-2.69318-1.33588-4.2449399-3.55362-4.2449399-2.19506 0-3.55726 1.53958-3.55726 3.88346 0 2.31784 1.41274 3.85546 3.56944 3.85546zm1.8774-4.65808h-3.75648c.09758-.9735599.70574-1.8358199 1.86704-1.8358199 1.1837 0 1.79186.86226 1.88944 1.8358199z" fill="#000" fill-rule="nonzero"/><path d="m153 0h80v40h-80z" fill="#000"/><g fill="#fff"><path d="m165.492903 22.9104355c.856936 0 1.502516-.4897742 1.502516-1.2911613 0-.5561613-.378338-1.3131774-1.468984-1.3131774h-1.324354v2.6043387zm-.300435-3.7061613c.812564 0 1.313177-.3895161 1.313177-1.157371 0-.7902097-.500613-1.1685484-1.379903-1.1685484h-.923661v2.3259194zm-2.192468 4.8079839v-8.2357258h2.237177c1.513355 0 2.470549.9460161 2.470549 2.2368387 0 .7014677-.200178 1.1465322-.734661 1.6027742.790548.4450645 1.224435 1.0794677 1.224435 2.003129 0 1.4693226-1.101823 2.3929839-2.604339 2.3929839z"/><path d="m172.526447 18.7369565c-1.15771 0-2.159274.9792096-2.159274 2.1812903 0 1.1685484.968371 2.1924677 2.136919 2.1924677 1.213258 0 2.203306-.9568548 2.203306-2.2036451 0-1.201742-.968032-2.1701129-2.180951-2.1701129m-.033532 5.4312096c-1.736226 0-3.283113-1.4801613-3.283113-3.2163871 0-1.8808548 1.480161-3.2719355 3.372193-3.2719355 1.702694 0 3.305468 1.3351936 3.283113 3.2939517-.022016 1.6474838-1.402258 3.1943709-3.372193 3.1943709"/><path d="m180.2053 18.7369565c-1.157371 0-2.159274.9792096-2.159274 2.1812903 0 1.1685484.968371 2.1924677 2.136919 2.1924677 1.213258 0 2.203645-.9568548 2.203645-2.2036451 0-1.201742-.968032-2.1701129-2.18129-2.1701129m-.033532 5.4312096c-1.736226 0-3.283113-1.4801613-3.283113-3.2163871 0-1.8808548 1.480161-3.2719355 3.372193-3.2719355 1.702694 0 3.305468 1.3351936 3.283113 3.2939517-.022016 1.6474838-1.402258 3.1943709-3.372193 3.1943709"/><path d="m195.463087 20.5399758c-.089081-1.0462742-1.012742-1.8029516-2.003468-1.8029516-.946016 0-1.891693.7458387-1.980774 1.8029516zm-3.984242.8904677c.266903 1.0239194 1.079468 1.6803388 2.025484 1.6803388.723484 0 1.402258-.3783388 1.758581-1.0350968h1.157371c-.478597 1.2688064-1.635968 2.0925484-2.960662 2.0925484-1.735887 0-3.138145-1.5360484-3.138145-3.1831936 0-1.9475806 1.468984-3.305129 3.104952-3.305129 1.814129 0 3.194032 1.4022581 3.194032 3.1716774 0 .1893387 0 .3671613-.033193.5788548z"/><path d="m197.944881 24.0122581v-6.1655323h1.079467v.5561613h.022355c.277742-.4115323.756339-.6787742 1.569242-.7231452v1.1905646c-1.001564.0335322-1.513693.6455806-1.513693 1.6806774v3.4612742z"/><path d="m188.637647 24.0122581-2.849226-3.1940323 2.571145-3.0947903h1.368726l-2.615177 3.0280645 2.971161 3.2607581zm-3.650274 0h1.157371v-8.2357258h-1.157371z"/><path d="m12.6303823 9.82452237c-1.0754033.00303731-2.1216775-.62323689-2.69037101-1.7050756l1.18074191-.71874193c.2418387.48266129.8118871 1.01070968 1.5197903.98598387.8047742-.02777419 1.3961613-.65879032 1.3961613-1.45712903 0-.83559678-.743129-1.39751613-1.391758-1.39819355-.4504839-.00067742-.7377097.12633871-.9297581.34446774-.2184677.24793548-.2912903.41762903-.2912903.41762903l-1.2823549-.29908064s.0436936-.25708065.1090646-.65608065l.6144193-3.53138709h4.0049032v1.43748387h-2.7316935l-.1578387.92230645c.2072903-.0701129.4308387-.07417742.6997742-.0735 1.3829516.00440322 2.7797903 1.22917742 2.7902903 2.79062903.0111774 1.72132258-1.3372258 2.93627419-2.8400806 2.9406885zm-3.17472585.01015021h-5.19817742v-.84067742c0-.24116129.09517742-.4725.26419355-.64422581l2.92746774-2.83330645c.55514516-.56429032.59308065-.9382258.59308065-1.13941935 0-.67166129-.57241936-1.15567742-1.16380645-1.15567742-.6543871 0-1.18412904.5111129-1.18412904 1.3368871v.38240322h-1.44629032v-.37224193c-.01795161-1.90795162 1.32401613-2.80959678 2.61009678-2.80959678 1.45103225 0 2.58808064 1.16346774 2.58808064 2.64837097 0 .84508064-.28146774 1.41851613-1.11604839 2.27341935l-1.66543548 1.71387097h2.79096774zm4.74430645-9.75585484-8.68079032-.00135484c-2.99317742-.00033871-5.41969355 2.55996775-5.42037097 5.71809678 0 3.15846774 2.42651613 5.71911292 5.42003226 5.71911292l8.68079033.0013548c2.9931774.0003387 5.4193548-2.55996772 5.4193548-5.71809675.0003387-3.15846775-2.4255-5.71911291-5.4190161-5.71911291z" mask="url(#a)" transform="translate(202.629032 14.261484)"/></g></g></svg>